<?xml version="1.0" encoding="UTF-8"?>
<svg width="512pt" height="512pt" version="1.1" viewBox="0 0 512 512" xmlns="http://www.w3.org/2000/svg">
 <g fill="#cda669">
  <path d="m120 352v8c0 2.1211 0.84375 4.1562 2.3438 5.6562s3.5352 2.3438 5.6562 2.3438h24c5.6953 0 11.203 2.0117 15.559 5.6758 4.3594 3.668 7.2812 8.7539 8.25 14.363 0.97266 5.6094-0.066406 11.383-2.9375 16.301l-25.465 43.66h-11.406c-4.418 0-8 3.582-8 8v32c0 2.1211 0.84375 4.1562 2.3438 5.6562s3.5352 2.3438 5.6562 2.3438h272c2.1211 0 4.1562-0.84375 5.6562-2.3438s2.3438-3.5352 2.3438-5.6562v-32c0-2.1211-0.84375-4.1562-2.3438-5.6562s-3.5352-2.3438-5.6562-2.3438h-16v-56c0.019531-16.969 6.7695-33.234 18.766-45.234 12-11.996 28.266-18.746 45.234-18.766 2.1211 0 4.1562-0.84375 5.6562-2.3438s2.3438-3.5352 2.3438-5.6562v-48c0-2.1211-0.84375-4.1562-2.3438-5.6562s-3.5352-2.3438-5.6562-2.3438h-104v-24c0-2.1211-0.84375-4.1562-2.3438-5.6562s-3.5352-2.3438-5.6562-2.3438h-176c-4.418 0-8 3.582-8 8v24h-32c-4.418 0-8 3.582-8 8h-64c-4.418 0-8 3.582-8 8 0.019531 19.09 7.6133 37.391 21.113 50.887 13.496 13.5 31.797 21.094 50.887 21.113zm280 128h-256v-16h256zm-224-232h160v16h-160zm-40 32h312v32h-80v16h40.074c-20.184 15.086-32.07 38.805-32.074 64v56h-210.07l20.766-35.602h-0.003906c3.6055-6.0859 5.5156-13.027 5.5391-20.102 0.023437-7.0742-1.8398-14.027-5.4023-20.141-0.83203-1.4375-1.7461-2.8281-2.7461-4.1602h31.918v-15.996h-80zm-16 8v48c-13.461-0.015625-26.469-4.875-36.645-13.688s-16.844-20.992-18.785-34.312z"/>
  <path d="m486.45 121.61c-6.082-5.8789-14.316-8.9922-22.766-8.6055l-159.69 6.6523v-31.66c0-2.1211-0.84375-4.1562-2.3438-5.6562l-8-8c-1.5-1.5-3.5352-2.3438-5.6562-2.3438h-64c-2.1211 0-4.1562 0.84375-5.6562 2.3438l-8 8c-1.5 1.5-2.3438 3.5352-2.3438 5.6562v32h-8c-8.5742 0-16.496 4.5742-20.785 12-4.2852 7.4258-4.2852 16.574 0 24 4.2891 7.4258 12.211 12 20.785 12h8v32c0 2.1211 0.84375 4.1562 2.3438 5.6562l8 8c1.5 1.5 3.5352 2.3438 5.6562 2.3438h64c2.1211 0 4.1562-0.84375 5.6562-2.3438l8-8c1.5-1.5 2.3438-3.5352 2.3438-5.6562v-31.66l159.69 6.6523c0.44531 0.019531 0.89062 0.027343 1.332 0.027343 8.2969-0.007812 16.246-3.3438 22.066-9.2578 5.8203-5.9102 9.0312-13.91 8.9102-22.207-0.11719-8.2969-3.5547-16.199-9.543-21.941zm-286.45 30.387c-4.418 0-8-3.582-8-8s3.582-8 8-8h8v16zm88 44.688-3.3125 3.3125h-57.375l-3.3125-3.3125v-105.38l3.3125-3.3125h57.375l3.3125 3.3125zm187.38-41.848c-2.9453 2.8477-6.9336 4.3555-11.023 4.168l-160.36-6.6836v-16.648l160.36-6.6836c4.0859-0.17188 8.0664 1.3359 11.02 4.168 2.957 2.832 4.625 6.7461 4.625 10.84s-1.668 8.0078-4.6211 10.84z"/>
  <path d="m248 16h16v40h-16z"/>
  <path d="m138.77 52.945 13.855-8 36.402 63.051-13.855 8z"/>
  <path d="m71.867 142.93 8-13.855 116.13 67.051-8 13.855z"/>
  <path d="m48 232h96v16h-96z"/>
  <path d="m368 232h96v16h-96z"/>
  <path d="m316 196.12 19.137-11.051 8 13.855-19.137 11.051z"/>
  <path d="m327.59 100 25.48-44.133 13.855 8-25.48 44.133z"/>
  <path d="m195.75 46.07 15.453-4.1406 4.8945 18.27-15.453 4.1406z"/>
  <path d="m87.789 203.21 4.1406-15.453 36.031 9.6523-4.1406 15.453z"/>
  <path d="m381.93 197.97 49.73-13.324 4.1406 15.453-49.73 13.324z"/>
 </g>
</svg>
